ffmpeg started on 2025-06-07 at 15:20:52
Report written to "D:\Convert\FFMetrics\reports\psnr_report-6.txt"
Log level: 32
Command line:
ffmpeg -hide_banner -nostdin -i "G:\\\xc0\xed\xe8\xec\xe5\\\xce\xed\xe3\xee\xe8\xed\xe3\xe8\\!_36_\xce\xf1\xe5\xed\xfc_2024\\DreamCast\\\xd1\xee\xe1\xeb\xe0\xe7\xed 2,5-\xec\xe5\xf0\xed\xee\xe3\xee \xe8\xe7\xec\xe5\xf0\xe5\xed\xe8\xff\\[DC] 2-5 Jigen no Ririsa - 12_Telegram_HEVC.mkv" -i "G:\\\xc0\xed\xe8\xec\xe5\\\xce\xed\xe3\xee\xe8\xed\xe3\xe8\\!_36_\xce\xf1\xe5\xed\xfc_2024\\DreamCast\\\xd1\xee\xe1\xeb\xe0\xe7\xed 2,5-\xec\xe5\xf0\xed\xee\xe3\xee \xe8\xe7\xec\xe5\xf0\xe5\xed\xe8\xff\\[DC] 2-5 Jigen no Ririsa - 12_Telegram.mp4" -lavfi "[0:v]settb=AVTB,setpts=PTS-STARTPTS,format=pix_fmts=yuv420p10,fps=24/1,scale=1920:1080:flags=bicubic[main];[1:v]settb=AVTB,setpts=PTS-STARTPTS,format=pix_fmts=yuv420p,fps=24/1,scale=1920:1080:flags=bicubic[ref];[main][ref]psnr=eof_action=endall:stats_file='D\\:/Convert/FFMetrics/logs/psnr_logfile-6.txt'" -f null -
Input #0, matroska,webm, from 'G:\Аниме\Онгоинги\!_36_Осень_2024\DreamCast\Соблазн 2,5-мерного измерения\[DC] 2-5 Jigen no Ririsa - 12_Telegram_HEVC.mkv':
  Metadata:
    COMPATIBLE_BRANDS: isomiso2avc1mp41
    MAJOR_BRAND     : isom
    MINOR_VERSION   : 512
    ENCODER         : Lavf61.7.100
  Duration: 00:24:09.13, start: -0.021000, bitrate: 1294 kb/s
  Stream #0:0: Video: hevc (Main 10), yuv420p10le(tv, bt709, progressive), 1920x1080 [SAR 1:1 DAR 16:9], 24 fps, 24 tbr, 1k tbn (default)
      Metadata:
        HANDLER_NAME    : VideoHandler
        VENDOR_ID       : [0][0][0][0]
        ENCODER         : Lavc61.19.100 libx265
        BPS             : 1097224
        DURATION        : 00:24:08.999666666
        NUMBER_OF_FRAMES: 34776
        NUMBER_OF_BYTES : 198734598
        _STATISTICS_WRITING_APP: mkvpropedit v66.0.0 ('Josie') 64-bit
        _STATISTICS_WRITING_DATE_UTC: 2025-06-04 11:39:56
        _STATISTICS_TAGS: BPS DURATION NUMBER_OF_FRAMES NUMBER_OF_BYTES
  Stream #0:1: Audio: aac (LC), 48000 Hz, stereo, fltp (default)
      Metadata:
        HANDLER_NAME    : SoundHandler
        VENDOR_ID       : [0][0][0][0]
        ENCODER         : Lavc61.19.100 aac
        BPS             : 192876
        DURATION        : 00:24:09.130000000
        NUMBER_OF_FRAMES: 67929
        NUMBER_OF_BYTES : 34937819
        _STATISTICS_WRITING_APP: mkvpropedit v66.0.0 ('Josie') 64-bit
        _STATISTICS_WRITING_DATE_UTC: 2025-06-04 11:39:56
        _STATISTICS_TAGS: BPS DURATION NUMBER_OF_FRAMES NUMBER_OF_BYTES
Input #1, mov,mp4,m4a,3gp,3g2,mj2, from 'G:\Аниме\Онгоинги\!_36_Осень_2024\DreamCast\Соблазн 2,5-мерного измерения\[DC] 2-5 Jigen no Ririsa - 12_Telegram.mp4':
  Metadata:
    major_brand     : isom
    minor_version   : 512
    compatible_brands: isomiso2avc1mp41
    encoder         : Lavf61.1.100
  Duration: 00:24:09.07, start: 0.000000, bitrate: 3854 kb/s
  Stream #1:0[0x1](und): Video: h264 (High) (avc1 / 0x31637661), yuv420p(tv, bt709, progressive), 1920x1080 [SAR 1:1 DAR 16:9], 3706 kb/s, 24 fps, 24 tbr, 12288 tbn (default)
      Metadata:
        handler_name    : VideoHandler
        vendor_id       : [0][0][0][0]
        encoder         : Lavc61.3.100 h264_qsv
  Stream #1:1[0x2](und): Audio: aac (HE-AACv2) (mp4a / 0x6134706D), 48000 Hz, stereo, fltp, 144 kb/s (default)
      Metadata:
        handler_name    : SoundHandler
        vendor_id       : [0][0][0][0]
Stream mapping:
  Stream #0:0 (hevc) -> settb:default
  Stream #1:0 (h264) -> settb:default
  psnr:default -> Stream #0:0 (wrapped_avframe)
  Stream #0:1 -> #0:1 (aac (native) -> pcm_s16le (native))
Output #0, null, to 'pipe:':
  Metadata:
    COMPATIBLE_BRANDS: isomiso2avc1mp41
    MAJOR_BRAND     : isom
    MINOR_VERSION   : 512
    encoder         : Lavf61.7.100
  Stream #0:0: Video: wrapped_avframe, yuv420p10le(tv, bt709, progressive), 1920x1080 [SAR 1:1 DAR 16:9], q=2-31, 200 kb/s, 24 fps, 24 tbn
      Metadata:
        encoder         : Lavc61.19.100 wrapped_avframe
  Stream #0:1: Audio: pcm_s16le, 48000 Hz, stereo, s16, 1536 kb/s (default)
      Metadata:
        HANDLER_NAME    : SoundHandler
        VENDOR_ID       : [0][0][0][0]
        _STATISTICS_TAGS: BPS DURATION NUMBER_OF_FRAMES NUMBER_OF_BYTES
        BPS             : 192876
        DURATION        : 00:24:09.130000000
        NUMBER_OF_FRAMES: 67929
        NUMBER_OF_BYTES : 34937819
        _STATISTICS_WRITING_APP: mkvpropedit v66.0.0 ('Josie') 64-bit
        _STATISTICS_WRITING_DATE_UTC: 2025-06-04 11:39:56
        encoder         : Lavc61.19.100 pcm_s16le
frame=  179 fps=0.0 q=-0.0 size=N/A time=00:00:07.45 bitrate=N/A speed=14.8x    frame=  429 fps=417 q=-0.0 size=N/A time=00:00:17.87 bitrate=N/A speed=17.4x    frame=  675 fps=438 q=-0.0 size=N/A time=00:00:28.12 bitrate=N/A speed=18.3x    frame=  911 fps=444 q=-0.0 size=N/A time=00:00:37.95 bitrate=N/A speed=18.5x    frame= 1165 fps=452 q=-0.0 size=N/A time=00:00:48.54 bitrate=N/A speed=18.8x    frame= 1325 fps=429 q=-0.0 size=N/A time=00:00:55.20 bitrate=N/A speed=17.9x    frame= 1558 fps=432 q=-0.0 size=N/A time=00:01:04.91 bitrate=N/A speed=  18x    frame= 1760 fps=426 q=-0.0 size=N/A time=00:01:13.33 bitrate=N/A speed=17.7x    frame= 1958 fps=422 q=-0.0 size=N/A time=00:01:21.58 bitrate=N/A speed=17.6x    frame= 2178 fps=421 q=-0.0 size=N/A time=00:01:30.75 bitrate=N/A speed=17.5x    frame= 2396 fps=422 q=-0.0 size=N/A time=00:01:39.83 bitrate=N/A speed=17.6x    frame= 2574 fps=416 q=-0.0 size=N/A time=00:01:47.25 bitrate=N/A speed=17.3x    frame= 2798 fps=417 q=-0.0 size=N/A time=00:01:56.58 bitrate=N/A speed=17.4x    frame= 2994 fps=414 q=-0.0 size=N/A time=00:02:04.75 bitrate=N/A speed=17.3x    frame= 3192 fps=412 q=-0.0 size=N/A time=00:02:13.00 bitrate=N/A speed=17.2x    frame= 3384 fps=410 q=-0.0 size=N/A time=00:02:21.00 bitrate=N/A speed=17.1x    frame= 3594 fps=410 q=-0.0 size=N/A time=00:02:29.75 bitrate=N/A speed=17.1x    frame= 3798 fps=409 q=-0.0 size=N/A time=00:02:38.25 bitrate=N/A speed=  17x    frame= 4037 fps=412 q=-0.0 size=N/A time=00:02:48.20 bitrate=N/A speed=17.2x    frame= 4300 fps=417 q=-0.0 size=N/A time=00:02:59.16 bitrate=N/A speed=17.4x    frame= 4586 fps=423 q=-0.0 size=N/A time=00:03:11.08 bitrate=N/A speed=17.6x    frame= 4844 fps=427 q=-0.0 size=N/A time=00:03:21.83 bitrate=N/A speed=17.8x    frame= 5106 fps=430 q=-0.0 size=N/A time=00:03:32.75 bitrate=N/A speed=17.9x    frame= 5368 fps=433 q=-0.0 size=N/A time=00:03:43.66 bitrate=N/A speed=18.1x    frame= 5617 fps=436 q=-0.0 size=N/A time=00:03:54.04 bitrate=N/A speed=18.1x    frame= 5851 fps=436 q=-0.0 size=N/A time=00:04:03.79 bitrate=N/A speed=18.2x    frame= 6107 fps=439 q=-0.0 size=N/A time=00:04:14.45 bitrate=N/A speed=18.3x    frame= 6393 fps=442 q=-0.0 size=N/A time=00:04:26.37 bitrate=N/A speed=18.4x    frame= 6662 fps=445 q=-0.0 size=N/A time=00:04:37.58 bitrate=N/A speed=18.6x    frame= 6934 fps=448 q=-0.0 size=N/A time=00:04:48.91 bitrate=N/A speed=18.7x    frame= 7206 fps=450 q=-0.0 size=N/A time=00:05:00.25 bitrate=N/A speed=18.8x    frame= 7455 fps=452 q=-0.0 size=N/A time=00:05:10.62 bitrate=N/A speed=18.8x    frame= 7704 fps=453 q=-0.0 size=N/A time=00:05:21.00 bitrate=N/A speed=18.9x    frame= 7981 fps=455 q=-0.0 size=N/A time=00:05:32.54 bitrate=N/A speed=  19x    frame= 8259 fps=457 q=-0.0 size=N/A time=00:05:44.12 bitrate=N/A speed=19.1x    frame= 8540 fps=460 q=-0.0 size=N/A time=00:05:55.83 bitrate=N/A speed=19.2x    frame= 8813 fps=462 q=-0.0 size=N/A time=00:06:07.20 bitrate=N/A speed=19.2x    frame= 9103 fps=464 q=-0.0 size=N/A time=00:06:19.29 bitrate=N/A speed=19.3x    frame= 9375 fps=466 q=-0.0 size=N/A time=00:06:30.62 bitrate=N/A speed=19.4x    frame= 9627 fps=467 q=-0.0 size=N/A time=00:06:41.12 bitrate=N/A speed=19.4x    frame= 9882 fps=467 q=-0.0 size=N/A time=00:06:51.75 bitrate=N/A speed=19.5x    frame=10132 fps=468 q=-0.0 size=N/A time=00:07:02.16 bitrate=N/A speed=19.5x    frame=10376 fps=468 q=-0.0 size=N/A time=00:07:12.33 bitrate=N/A speed=19.5x    frame=10623 fps=468 q=-0.0 size=N/A time=00:07:22.62 bitrate=N/A speed=19.5x    frame=10897 fps=469 q=-0.0 size=N/A time=00:07:34.04 bitrate=N/A speed=19.6x    frame=11141 fps=470 q=-0.0 size=N/A time=00:07:44.20 bitrate=N/A speed=19.6x    frame=11391 fps=470 q=-0.0 size=N/A time=00:07:54.62 bitrate=N/A speed=19.6x    frame=11659 fps=471 q=-0.0 size=N/A time=00:08:05.79 bitrate=N/A speed=19.6x    frame=11938 fps=472 q=-0.0 size=N/A time=00:08:17.41 bitrate=N/A speed=19.7x    frame=12202 fps=473 q=-0.0 size=N/A time=00:08:28.41 bitrate=N/A speed=19.7x    frame=12462 fps=474 q=-0.0 size=N/A time=00:08:39.25 bitrate=N/A speed=19.7x    frame=12722 fps=474 q=-0.0 size=N/A time=00:08:50.08 bitrate=N/A speed=19.8x    frame=12972 fps=474 q=-0.0 size=N/A time=00:09:00.50 bitrate=N/A speed=19.8x    frame=13220 fps=475 q=-0.0 size=N/A time=00:09:10.83 bitrate=N/A speed=19.8x    frame=13449 fps=474 q=-0.0 size=N/A time=00:09:20.37 bitrate=N/A speed=19.8x    frame=13702 fps=475 q=-0.0 size=N/A time=00:09:30.91 bitrate=N/A speed=19.8x    frame=13917 fps=473 q=-0.0 size=N/A time=00:09:39.87 bitrate=N/A speed=19.7x    frame=14091 fps=471 q=-0.0 size=N/A time=00:09:47.12 bitrate=N/A speed=19.6x    frame=14359 fps=472 q=-0.0 size=N/A time=00:09:58.29 bitrate=N/A speed=19.7x    frame=14591 fps=471 q=-0.0 size=N/A time=00:10:07.95 bitrate=N/A speed=19.6x    frame=14770 fps=470 q=-0.0 size=N/A time=00:10:15.41 bitrate=N/A speed=19.6x    frame=15032 fps=470 q=-0.0 size=N/A time=00:10:26.33 bitrate=N/A speed=19.6x    frame=15290 fps=471 q=-0.0 size=N/A time=00:10:37.08 bitrate=N/A speed=19.6x    frame=15539 fps=471 q=-0.0 size=N/A time=00:10:47.45 bitrate=N/A speed=19.6x    frame=15812 fps=472 q=-0.0 size=N/A time=00:10:58.83 bitrate=N/A speed=19.6x    frame=16062 fps=472 q=-0.0 size=N/A time=00:11:09.25 bitrate=N/A speed=19.7x    frame=16293 fps=472 q=-0.0 size=N/A time=00:11:18.87 bitrate=N/A speed=19.6x    frame=16546 fps=472 q=-0.0 size=N/A time=00:11:29.41 bitrate=N/A speed=19.7x    frame=16788 fps=472 q=-0.0 size=N/A time=00:11:39.50 bitrate=N/A speed=19.7x    frame=17039 fps=472 q=-0.0 size=N/A time=00:11:49.95 bitrate=N/A speed=19.7x    frame=17303 fps=473 q=-0.0 size=N/A time=00:12:00.95 bitrate=N/A speed=19.7x    frame=17571 fps=473 q=-0.0 size=N/A time=00:12:12.12 bitrate=N/A speed=19.7x    frame=17826 fps=474 q=-0.0 size=N/A time=00:12:22.75 bitrate=N/A speed=19.7x    frame=18094 fps=474 q=-0.0 size=N/A time=00:12:33.91 bitrate=N/A speed=19.8x    frame=18334 fps=474 q=-0.0 size=N/A time=00:12:43.91 bitrate=N/A speed=19.8x    frame=18575 fps=474 q=-0.0 size=N/A time=00:12:53.95 bitrate=N/A speed=19.7x    frame=18806 fps=474 q=-0.0 size=N/A time=00:13:03.58 bitrate=N/A speed=19.7x    frame=19070 fps=474 q=-0.0 size=N/A time=00:13:14.58 bitrate=N/A speed=19.8x    frame=19345 fps=475 q=-0.0 size=N/A time=00:13:26.04 bitrate=N/A speed=19.8x    frame=19582 fps=475 q=-0.0 size=N/A time=00:13:35.91 bitrate=N/A speed=19.8x    frame=19826 fps=475 q=-0.0 size=N/A time=00:13:46.08 bitrate=N/A speed=19.8x    frame=20071 fps=474 q=-0.0 size=N/A time=00:13:56.29 bitrate=N/A speed=19.8x    frame=20310 fps=474 q=-0.0 size=N/A time=00:14:06.25 bitrate=N/A speed=19.8x    frame=20551 fps=474 q=-0.0 size=N/A time=00:14:16.29 bitrate=N/A speed=19.8x    frame=20799 fps=474 q=-0.0 size=N/A time=00:14:26.62 bitrate=N/A speed=19.8x    frame=21054 fps=474 q=-0.0 size=N/A time=00:14:37.25 bitrate=N/A speed=19.8x    frame=21324 fps=475 q=-0.0 size=N/A time=00:14:48.50 bitrate=N/A speed=19.8x    frame=21591 fps=475 q=-0.0 size=N/A time=00:14:59.62 bitrate=N/A speed=19.8x    frame=21839 fps=476 q=-0.0 size=N/A time=00:15:09.95 bitrate=N/A speed=19.8x    frame=22091 fps=476 q=-0.0 size=N/A time=00:15:20.45 bitrate=N/A speed=19.8x    frame=22295 fps=475 q=-0.0 size=N/A time=00:15:28.95 bitrate=N/A speed=19.8x    frame=22522 fps=474 q=-0.0 size=N/A time=00:15:38.41 bitrate=N/A speed=19.8x    frame=22778 fps=475 q=-0.0 size=N/A time=00:15:49.08 bitrate=N/A speed=19.8x    frame=23038 fps=475 q=-0.0 size=N/A time=00:15:59.91 bitrate=N/A speed=19.8x    frame=23306 fps=475 q=-0.0 size=N/A time=00:16:11.08 bitrate=N/A speed=19.8x    frame=23578 fps=476 q=-0.0 size=N/A time=00:16:22.41 bitrate=N/A speed=19.8x    frame=23804 fps=475 q=-0.0 size=N/A time=00:16:31.83 bitrate=N/A speed=19.8x    frame=24023 fps=475 q=-0.0 size=N/A time=00:16:40.95 bitrate=N/A speed=19.8x    frame=24228 fps=474 q=-0.0 size=N/A time=00:16:49.50 bitrate=N/A speed=19.8x    frame=24404 fps=473 q=-0.0 size=N/A time=00:16:56.83 bitrate=N/A speed=19.7x    frame=24640 fps=473 q=-0.0 size=N/A time=00:17:06.66 bitrate=N/A speed=19.7x    frame=24821 fps=472 q=-0.0 size=N/A time=00:17:14.20 bitrate=N/A speed=19.6x    frame=25062 fps=472 q=-0.0 size=N/A time=00:17:24.25 bitrate=N/A speed=19.6x    frame=25266 fps=471 q=-0.0 size=N/A time=00:17:32.75 bitrate=N/A speed=19.6x    frame=25526 fps=471 q=-0.0 size=N/A time=00:17:43.58 bitrate=N/A speed=19.6x    frame=25791 fps=471 q=-0.0 size=N/A time=00:17:54.62 bitrate=N/A speed=19.6x    frame=26018 fps=471 q=-0.0 size=N/A time=00:18:04.08 bitrate=N/A speed=19.6x    frame=26206 fps=470 q=-0.0 size=N/A time=00:18:11.91 bitrate=N/A speed=19.6x    frame=26390 fps=469 q=-0.0 size=N/A time=00:18:19.58 bitrate=N/A speed=19.6x    frame=26578 fps=468 q=-0.0 size=N/A time=00:18:27.41 bitrate=N/A speed=19.5x    frame=26734 fps=467 q=-0.0 size=N/A time=00:18:33.91 bitrate=N/A speed=19.4x    frame=26955 fps=466 q=-0.0 size=N/A time=00:18:43.12 bitrate=N/A speed=19.4x    frame=27212 fps=467 q=-0.0 size=N/A time=00:18:53.83 bitrate=N/A speed=19.4x    frame=27432 fps=466 q=-0.0 size=N/A time=00:19:03.00 bitrate=N/A speed=19.4x    frame=27688 fps=467 q=-0.0 size=N/A time=00:19:13.66 bitrate=N/A speed=19.4x    frame=27948 fps=467 q=-0.0 size=N/A time=00:19:24.50 bitrate=N/A speed=19.5x    frame=28176 fps=467 q=-0.0 size=N/A time=00:19:34.00 bitrate=N/A speed=19.4x    frame=28395 fps=466 q=-0.0 size=N/A time=00:19:43.12 bitrate=N/A speed=19.4x    frame=28620 fps=466 q=-0.0 size=N/A time=00:19:52.50 bitrate=N/A speed=19.4x    frame=28854 fps=466 q=-0.0 size=N/A time=00:20:02.25 bitrate=N/A speed=19.4x    frame=29075 fps=466 q=-0.0 size=N/A time=00:20:11.45 bitrate=N/A speed=19.4x    frame=29306 fps=466 q=-0.0 size=N/A time=00:20:21.08 bitrate=N/A speed=19.4x    frame=29561 fps=466 q=-0.0 size=N/A time=00:20:31.70 bitrate=N/A speed=19.4x    frame=29810 fps=466 q=-0.0 size=N/A time=00:20:42.08 bitrate=N/A speed=19.4x    frame=30050 fps=466 q=-0.0 size=N/A time=00:20:52.08 bitrate=N/A speed=19.4x    frame=30304 fps=466 q=-0.0 size=N/A time=00:21:02.66 bitrate=N/A speed=19.4x    frame=30576 fps=467 q=-0.0 size=N/A time=00:21:14.00 bitrate=N/A speed=19.4x    frame=30822 fps=467 q=-0.0 size=N/A time=00:21:24.25 bitrate=N/A speed=19.4x    frame=30958 fps=465 q=-0.0 size=N/A time=00:21:29.91 bitrate=N/A speed=19.4x    frame=31143 fps=464 q=-0.0 size=N/A time=00:21:37.62 bitrate=N/A speed=19.3x    frame=31364 fps=464 q=-0.0 size=N/A time=00:21:46.83 bitrate=N/A speed=19.3x    frame=31624 fps=464 q=-0.0 size=N/A time=00:21:57.66 bitrate=N/A speed=19.3x    frame=31875 fps=464 q=-0.0 size=N/A time=00:22:08.12 bitrate=N/A speed=19.4x    frame=32145 fps=465 q=-0.0 size=N/A time=00:22:19.37 bitrate=N/A speed=19.4x    frame=32393 fps=465 q=-0.0 size=N/A time=00:22:29.70 bitrate=N/A speed=19.4x    frame=32633 fps=465 q=-0.0 size=N/A time=00:22:39.70 bitrate=N/A speed=19.4x    frame=32846 fps=465 q=-0.0 size=N/A time=00:22:48.58 bitrate=N/A speed=19.4x    frame=33033 fps=464 q=-0.0 size=N/A time=00:22:56.37 bitrate=N/A speed=19.3x    frame=33229 fps=463 q=-0.0 size=N/A time=00:23:04.54 bitrate=N/A speed=19.3x    frame=33419 fps=463 q=-0.0 size=N/A time=00:23:12.45 bitrate=N/A speed=19.3x    frame=33610 fps=462 q=-0.0 size=N/A time=00:23:20.41 bitrate=N/A speed=19.2x    frame=33838 fps=462 q=-0.0 size=N/A time=00:23:29.91 bitrate=N/A speed=19.2x    frame=34043 fps=461 q=-0.0 size=N/A time=00:23:38.45 bitrate=N/A speed=19.2x    frame=34247 fps=461 q=-0.0 size=N/A time=00:23:46.95 bitrate=N/A speed=19.2x    frame=34415 fps=460 q=-0.0 size=N/A time=00:23:53.95 bitrate=N/A speed=19.2x    frame=34614 fps=459 q=-0.0 size=N/A time=00:24:02.25 bitrate=N/A speed=19.1x    [Parsed_psnr_10 @ 000002278c377180] PSNR y:47.157016 u:50.025626 v:49.670546 average:47.882308 min:40.437032 max:inf
[out#0/null @ 00000227ff634a40] video:14943KiB audio:271716KiB subtitle:0KiB other streams:0KiB global headers:0KiB muxing overhead: unknown
frame=34776 fps=460 q=-0.0 Lsize=N/A time=00:24:09.00 bitrate=N/A speed=19.2x    
